<svg width="512" height="512" viewBox="0 0 512 512" fill="none" xmlns="http://www.w3.org/2000/svg">
<path d="M507.73 109.1C505.49 100.07 494.19 97.01 487.61 103.59L413.25 177.95L345.37 166.64L334.06 98.76L408.42 24.4C415.04 17.78 411.85 6.49998 402.76 4.23998C355.38 -7.50001 303.21 5.14998 266.18 42.17C226.54 81.81 215.63 139.27 232.13 189.37L18.7401 402.76C-6.24994 427.75 -6.24994 468.27 18.7401 493.26C43.7301 518.25 84.2501 518.25 109.24 493.26L322.45 280.05C372.57 296.76 429.92 285.73 469.82 245.83C506.89 208.76 519.52 156.51 507.73 109.1V109.1ZM64.0001 472C50.7501 472 40.0001 461.25 40.0001 448C40.0001 434.74 50.7501 424 64.0001 424C77.2501 424 88.0001 434.74 88.0001 448C88.0001 461.25 77.2501 472 64.0001 472Z" fill="#0EA5E9"/>
</svg>
